<svg width="24" height="24" viewBox="0 0 24 24" fill="none" xmlns="http://www.w3.org/2000/svg">
<path d="M20.2488 7.50177C21.2007 7.5016 22.1169 7.86338 22.8119 8.51376C23.5068 9.16415 23.9285 10.0545 23.9913 11.0042L24.0003 11.2502V20.2501C24.0004 21.2021 23.6384 22.1186 22.9877 22.8136C22.337 23.5086 21.4463 23.93 20.4963 23.9925L20.2503 24H11.2505C10.2984 24.0001 9.38195 23.6382 8.68696 22.9875C7.99197 22.3368 7.5705 21.4461 7.50805 20.4961L7.50055 20.2501V11.2502C7.5004 10.2981 7.86239 9.38167 8.51309 8.68668C9.16379 7.99169 10.0545 7.57022 11.0045 7.50777L11.249 7.50177H20.2488ZM15.7504 10.5017C15.5749 10.5017 15.4049 10.5632 15.27 10.6756C15.1352 10.7879 15.044 10.944 15.0124 11.1167L15.0004 11.2517V15.0016H11.249L11.114 15.0121C10.9411 15.0435 10.7846 15.1345 10.672 15.2694C10.5593 15.4042 10.4976 15.5744 10.4976 15.7501C10.4976 15.9259 10.5593 16.096 10.672 16.2309C10.7846 16.3658 10.9411 16.4568 11.114 16.4881L11.249 16.5001H14.9989V20.2501L15.0109 20.3851C15.0422 20.558 15.1333 20.7144 15.2681 20.8271C15.403 20.9397 15.5732 21.0014 15.7489 21.0014C15.9246 21.0014 16.0948 20.9397 16.2297 20.8271C16.3646 20.7144 16.4556 20.558 16.4869 20.3851L16.4989 20.2516V16.5016H20.2488L20.3838 16.4896C20.5568 16.4583 20.7132 16.3673 20.8258 16.2324C20.9385 16.0975 21.0002 15.9274 21.0002 15.7516C21.0002 15.5759 20.9385 15.4057 20.8258 15.2709C20.7132 15.136 20.5568 15.045 20.3838 15.0136L20.2488 15.0016H16.4989V11.2517L16.4869 11.1167C16.4553 10.944 16.3641 10.7879 16.2293 10.6756C16.0944 10.5632 15.9244 10.5017 15.7489 10.5017H15.7504ZM15.9934 2.54285L16.0654 2.77984L16.9279 6.00029H10.5005C9.3527 6.00023 8.24826 6.43877 7.41316 7.2262C6.57805 8.01362 6.07541 9.0904 6.00807 10.2362L6.00057 10.5002V18.5221C5.23435 18.5054 4.4916 18.2546 3.87216 17.8033C3.25273 17.352 2.78632 16.7219 2.53563 15.9976L2.45763 15.7426L0.128166 7.05027C-0.118614 6.13073 -0.00638543 5.15175 0.442087 4.3119C0.89056 3.47206 1.6417 2.83425 2.54313 2.52785L2.78012 2.45735L11.4725 0.127888C12.3513 -0.10769 13.2858 -0.0157348 14.1018 0.386621C14.9178 0.788976 15.5597 1.47429 15.9079 2.31485L15.9934 2.54285Z" fill="#528DFF"/>
</svg>
