<svg width="24" height="24" viewBox="0 0 24 24" fill="none" xmlns="http://www.w3.org/2000/svg">
<path d="M12 0C8.43281 0 5.23594 1.56562 3.04219 4.04062L0 0.998437V9H8.00156L5.17969 6.17813C6.825 4.24219 9.25781 3 12 3C16.9688 3 21 7.02656 21 12C21 16.9734 16.9688 21 12 21C9.51562 21 7.26562 19.9922 5.63437 18.3656L3.51562 20.4844C5.69063 22.6547 8.69063 24 12 24C18.6281 24 24 18.6281 24 12C24 5.37188 18.6281 0 12 0ZM11.0016 5.00156V13.0031H17.0016V11.0016H13.0031V5.00156H11.0016Z" fill="#EF981D"/>
</svg>
