<svg width="25" height="24" viewBox="0 0 25 24" fill="none" xmlns="http://www.w3.org/2000/svg">
<path d="M10.8791 7.20427L11.0999 7.19827H20.1008C21.0969 7.19819 22.0552 7.57919 22.7794 8.26315C23.5035 8.94711 23.9385 9.88219 23.9952 10.8767L24.0012 11.0987V20.0996C24.0013 21.0959 23.6201 22.0544 22.9359 22.7786C22.2517 23.5027 21.3163 23.9376 20.3216 23.994L20.1008 24H11.0999C10.1036 24.0001 9.14508 23.6189 8.42092 22.9347C7.69676 22.2505 7.26188 21.3151 7.20547 20.3204L7.19947 20.1008V11.0999C7.19941 10.1036 7.58058 9.14508 8.26479 8.42092C8.949 7.69676 9.88438 7.26188 10.8791 7.20547V7.20427ZM20.1008 8.99846H11.0999C10.5728 8.99848 10.065 9.19668 9.67726 9.55373C9.28953 9.91078 9.05023 10.4006 9.00686 10.9259L8.99966 11.0987V20.0996C8.9997 20.6269 9.19808 21.1348 9.55537 21.5226C9.91267 21.9104 10.4027 22.1495 10.9283 22.1926L11.0999 22.1998H20.1008C20.6281 22.1998 21.136 22.0014 21.5238 21.6441C21.9116 21.2868 22.1507 20.7967 22.1938 20.2712L22.201 20.0996V11.0987C22.201 10.5417 21.9797 10.0075 21.5859 9.6136C21.192 9.21973 20.6578 8.99846 20.1008 8.99846ZM15.6003 10.7998C15.8391 10.7998 16.068 10.8947 16.2368 11.0635C16.4056 11.2323 16.5004 11.4612 16.5004 11.6999V14.6978H19.5007C19.7395 14.6978 19.9684 14.7927 20.1372 14.9615C20.306 15.1303 20.4008 15.3592 20.4008 15.5979C20.4008 15.8367 20.306 16.0656 20.1372 16.2344C19.9684 16.4032 19.7395 16.498 19.5007 16.498H16.5004V19.5007C16.5004 19.7395 16.4056 19.9684 16.2368 20.1372C16.068 20.306 15.8391 20.4008 15.6003 20.4008C15.3616 20.4008 15.1327 20.306 14.9639 20.1372C14.7951 19.9684 14.7002 19.7395 14.7002 19.5007V16.498H11.6999C11.4612 16.498 11.2323 16.4032 11.0635 16.2344C10.8947 16.0656 10.7998 15.8367 10.7998 15.5979C10.7998 15.3592 10.8947 15.1303 11.0635 14.9615C11.2323 14.7927 11.4612 14.6978 11.6999 14.6978H14.7002V11.6999C14.7002 11.4612 14.7951 11.2323 14.9639 11.0635C15.1327 10.8947 15.3616 10.7998 15.6003 10.7998ZM16.2988 2.67861L16.3612 2.89103L17.1929 5.99695H15.3291L14.6234 3.35668C14.5521 3.09012 14.429 2.84023 14.2611 2.62128C14.0931 2.40233 13.8837 2.21861 13.6448 2.08063C13.4058 1.94265 13.142 1.85312 12.8684 1.81713C12.5949 1.78115 12.3169 1.79943 12.0504 1.87093L3.35668 4.20157C2.84918 4.33766 2.41113 4.65903 2.12897 5.10227C1.8468 5.54551 1.74103 6.07841 1.83252 6.59581L1.87093 6.77343L4.20157 15.4671C4.31088 15.8756 4.54099 16.2416 4.86176 16.5172C5.18253 16.7928 5.57902 16.9652 5.99935 17.0117V18.8191C5.21906 18.7726 4.47071 18.4928 3.85124 18.0161C3.23178 17.5393 2.76975 16.8876 2.52499 16.1452L2.46259 15.934L0.133147 7.23908C-0.124876 6.27703 -0.00506371 5.25272 0.468015 4.37618C0.941094 3.49965 1.73159 2.83731 2.67741 2.52499L2.89103 2.46259L11.5847 0.133147C12.5468 -0.124876 13.5711 -0.00506371 14.4476 0.468015C15.3242 0.941094 15.9865 1.73159 16.2988 2.67741V2.67861Z" fill="#EF981D"/>
</svg>
