<svg width="24" height="24" viewBox="0 0 24 24" fill="none" xmlns="http://www.w3.org/2000/svg">
<path d="M19.5 6V1.5C19.5 0.671719 18.8283 0 18 0H1.5C0.671719 0 0 0.671719 0 1.5V6C0 6.82828 0.671719 7.5 1.5 7.5H18C18.8283 7.5 19.5 6.82828 19.5 6ZM21 3V9C21 9.82828 20.3283 10.5 19.5 10.5H12C10.343 10.5 9 11.843 9 13.5V15C8.17172 15 7.5 15.6717 7.5 16.5V22.5C7.5 23.3283 8.17172 24 9 24H12C12.8283 24 13.5 23.3283 13.5 22.5V16.5C13.5 15.6717 12.8283 15 12 15V13.5H19.5C21.9853 13.5 24 11.4853 24 9V6C24 4.34297 22.657 3 21 3Z" fill="#EF981D"/>
</svg>
