<svg width="24" height="12" viewBox="0 0 24 12" fill="none" xmlns="http://www.w3.org/2000/svg">
<path d="M0 1.2C0 0.88174 0.126428 0.576516 0.351472 0.351472C0.576515 0.126428 0.88174 0 1.2 0H22.8C23.1183 0 23.4235 0.126428 23.6485 0.351472C23.8736 0.576516 24 0.88174 24 1.2C24 1.51826 23.8736 1.82348 23.6485 2.04853C23.4235 2.27357 23.1183 2.4 22.8 2.4H1.2C0.88174 2.4 0.576515 2.27357 0.351472 2.04853C0.126428 1.82348 0 1.51826 0 1.2ZM0 6C0 5.68174 0.126428 5.37652 0.351472 5.15147C0.576515 4.92643 0.88174 4.8 1.2 4.8H22.8C23.1183 4.8 23.4235 4.92643 23.6485 5.15147C23.8736 5.37652 24 5.68174 24 6C24 6.31826 23.8736 6.62348 23.6485 6.84853C23.4235 7.07357 23.1183 7.2 22.8 7.2H1.2C0.88174 7.2 0.576515 7.07357 0.351472 6.84853C0.126428 6.62348 0 6.31826 0 6ZM1.2 9.6C0.88174 9.6 0.576515 9.72643 0.351472 9.95147C0.126428 10.1765 0 10.4817 0 10.8C0 11.1183 0.126428 11.4235 0.351472 11.6485C0.576515 11.8736 0.88174 12 1.2 12H15.6C15.9183 12 16.2235 11.8736 16.4485 11.6485C16.6736 11.4235 16.8 11.1183 16.8 10.8C16.8 10.4817 16.6736 10.1765 16.4485 9.95147C16.2235 9.72643 15.9183 9.6 15.6 9.6H1.2Z" fill="#EF981D"/>
</svg>
