<svg width="20" height="21" viewBox="0 0 20 21" fill="none" xmlns="http://www.w3.org/2000/svg">
<path d="M19.4727 18.8618L13.1323 12.5215C14.1162 11.2495 14.6484 9.69434 14.6484 8.05859C14.6484 6.10059 13.8843 4.26465 12.5024 2.88037C11.1206 1.49609 9.27979 0.734375 7.32422 0.734375C5.36865 0.734375 3.52783 1.49854 2.146 2.88037C0.761719 4.26221 0 6.10059 0 8.05859C0 10.0142 0.76416 11.855 2.146 13.2368C3.52783 14.6211 5.36621 15.3828 7.32422 15.3828C8.95996 15.3828 10.5127 14.8506 11.7847 13.8691L18.125 20.207C18.1436 20.2256 18.1657 20.2404 18.19 20.2505C18.2143 20.2605 18.2403 20.2657 18.2666 20.2657C18.2929 20.2657 18.3189 20.2605 18.3432 20.2505C18.3675 20.2404 18.3896 20.2256 18.4082 20.207L19.4727 19.145C19.4913 19.1264 19.506 19.1044 19.5161 19.0801C19.5262 19.0558 19.5313 19.0297 19.5313 19.0034C19.5313 18.9771 19.5262 18.9511 19.5161 18.9268C19.506 18.9025 19.4913 18.8804 19.4727 18.8618ZM11.1914 11.9258C10.1563 12.9585 8.78418 13.5273 7.32422 13.5273C5.86426 13.5273 4.49219 12.9585 3.45703 11.9258C2.42432 10.8906 1.85547 9.51856 1.85547 8.05859C1.85547 6.59863 2.42432 5.22412 3.45703 4.19141C4.49219 3.15869 5.86426 2.58984 7.32422 2.58984C8.78418 2.58984 10.1587 3.15625 11.1914 4.19141C12.2241 5.22656 12.793 6.59863 12.793 8.05859C12.793 9.51856 12.2241 10.8931 11.1914 11.9258Z" fill="white"/>
</svg>
