<svg width="44" height="40" viewBox="0 0 44 40" fill="none" xmlns="http://www.w3.org/2000/svg">
<path d="M37.7888 9.49825H4.76313V8.22735L33.8257 5.99055V8.22735H37.7888V4.41463C37.7888 1.61863 35.4347 -0.343646 32.5602 0.0503348L6.03131 3.69529C3.15412 4.09182 0.800049 6.70226 0.800049 9.49825V34.9164C0.800049 36.2646 1.35677 37.5577 2.34773 38.511C3.33869 39.4644 4.68272 40 6.08415 40H37.7888C39.1902 40 40.5343 39.4644 41.5252 38.511C42.5162 37.5577 43.0729 36.2646 43.0729 34.9164V14.5819C43.0729 13.2336 42.5162 11.9406 41.5252 10.9872C40.5343 10.0338 39.1902 9.49825 37.7888 9.49825ZM33.8257 27.3062C33.3051 27.306 32.7896 27.2072 32.3087 27.0154C31.8278 26.8236 31.3908 26.5425 31.0228 26.1882C30.6548 25.8339 30.363 25.4134 30.1639 24.9506C29.9648 24.4878 29.8625 23.9918 29.8626 23.4909C29.8628 22.9901 29.9655 22.4941 30.1649 22.0315C30.3643 21.5688 30.6565 21.1484 31.0247 20.7944C31.393 20.4404 31.8301 20.1596 32.3111 19.968C32.7922 19.7765 33.3077 19.678 33.8284 19.6782C34.8798 19.6785 35.888 20.0807 36.6312 20.7962C37.3744 21.5117 37.7918 22.4819 37.7914 23.4935C37.7911 24.505 37.3731 25.475 36.6293 26.19C35.8856 26.905 34.8771 27.3065 33.8257 27.3062Z" fill="#EF981D"/>
</svg>
